<svg width="6" height="6" viewBox="0 0 6 6" fill="none" xmlns="http://www.w3.org/2000/svg">
<path d="M2.49777 3.49554C2.49777 3.75402 2.31027 3.83571 2.07991 3.83571H1.47589V3.12723H2.09196C2.34107 3.12857 2.49777 3.2317 2.49777 3.49554ZM2.39464 2.3933C2.39464 2.15625 2.21116 2.1 2.00759 2.1H1.47723V2.7H2.04911C2.25134 2.7 2.39464 2.61161 2.39464 2.3933ZM4.16652 2.70402C3.92143 2.70402 3.75804 2.8567 3.74196 3.10179H4.575C4.55223 2.85402 4.42366 2.70402 4.16652 2.70402ZM6 0.642857V5.35714C6 5.71205 5.71205 6 5.35714 6H0.642857C0.287946 6 0 5.71205 0 5.35714V0.642857C0 0.287946 0.287946 0 0.642857 0H5.35714C5.71205 0 6 0.287946 6 0.642857ZM3.63884 2.04911H4.6808V1.79598H3.63884V2.04911ZM3.06295 3.52634C3.06295 3.20357 2.91027 2.925 2.5942 2.83527C2.82455 2.72545 2.94509 2.59821 2.94509 2.33973C2.94509 1.82812 2.56339 1.70357 2.12277 1.70357H0.910714V4.275H2.15759C2.625 4.27232 3.06295 4.04866 3.06295 3.52634ZM5.08929 3.32812C5.08929 2.77768 4.76652 2.3183 4.18393 2.3183C3.61607 2.3183 3.2317 2.7442 3.2317 3.30402C3.2317 3.88393 3.59732 4.2817 4.18393 4.2817C4.62857 4.2817 4.91652 4.08214 5.0558 3.65491H4.60446C4.55491 3.81429 4.35536 3.89732 4.2 3.89732C3.9 3.89732 3.7433 3.72188 3.7433 3.42455H5.08527C5.08661 3.39375 5.08929 3.36027 5.08929 3.32812Z" fill="black"/>
</svg>
