<svg width="6" height="6" viewBox="0 0 6 6" fill="none" xmlns="http://www.w3.org/2000/svg">
<path fill-rule="evenodd" clip-rule="evenodd" d="M3 0C1.3425 0 0 1.37646 0 3.07588C0 4.43696 0.85875 5.58657 2.05125 5.99412C2.20125 6.02104 2.2575 5.92876 2.2575 5.84802C2.2575 5.77497 2.25375 5.53274 2.25375 5.27514C1.5 5.4174 1.305 5.08674 1.245 4.91372C1.21125 4.82529 1.065 4.5523 0.9375 4.47925C0.8325 4.42158 0.6825 4.27932 0.93375 4.27548C1.17 4.27163 1.33875 4.49848 1.395 4.59075C1.665 5.05598 2.09625 4.92526 2.26875 4.84451C2.295 4.64458 2.37375 4.51001 2.46 4.43311C1.7925 4.35622 1.095 4.09092 1.095 2.9144C1.095 2.5799 1.21125 2.30307 1.4025 2.08775C1.3725 2.01086 1.2675 1.69558 1.4325 1.27265C1.4325 1.27265 1.68375 1.1919 2.2575 1.58792C2.4975 1.51872 2.7525 1.48411 3.0075 1.48411C3.2625 1.48411 3.5175 1.51872 3.7575 1.58792C4.33125 1.18806 4.5825 1.27265 4.5825 1.27265C4.7475 1.69558 4.6425 2.01086 4.6125 2.08775C4.80375 2.30307 4.92 2.57605 4.92 2.9144C4.92 4.09477 4.21875 4.35622 3.55125 4.43311C3.66 4.52924 3.75375 4.71379 3.75375 5.00215C3.75375 5.41355 3.75 5.74421 3.75 5.84802C3.75 5.92876 3.80625 6.02488 3.95625 5.99412C4.55179 5.78797 5.06929 5.39553 5.43592 4.87203C5.80254 4.34854 5.99982 3.72035 6 3.07588C6 1.37646 4.6575 0 3 0Z" fill="black"/>
</svg>
