<svg width="7" height="7" viewBox="0 0 7 7" fill="none" xmlns="http://www.w3.org/2000/svg">
<path fill-rule="evenodd" clip-rule="evenodd" d="M3.12 0C2.2728 0 2.16648 0.00360002 1.8336 0.01872C1.50144 0.03384 1.27464 0.08664 1.07616 0.16368C0.868011 0.242075 0.679469 0.364931 0.52368 0.52368C0.364902 0.679539 0.242044 0.868166 0.16368 1.0764C0.08664 1.27464 0.03408 1.50144 0.01872 1.8336C0.00360002 2.16648 0 2.2728 0 3.12C0 3.9672 0.00360002 4.07352 0.01872 4.4064C0.03384 4.73856 0.08664 4.96536 0.16368 5.1636C0.2436 5.3688 0.35016 5.5428 0.52368 5.71632C0.679469 5.87507 0.868011 5.99792 1.07616 6.07632C1.27464 6.15312 1.50144 6.20592 1.8336 6.22128C2.16648 6.2364 2.2728 6.24 3.12 6.24C3.9672 6.24 4.07352 6.2364 4.4064 6.22128C4.73856 6.20616 4.96536 6.15336 5.1636 6.07632C5.37184 5.99796 5.56047 5.8751 5.71632 5.71632C5.8751 5.56046 5.99796 5.37183 6.07632 5.1636C6.15312 4.96536 6.20592 4.73856 6.22128 4.4064C6.2364 4.07352 6.24 3.9672 6.24 3.12C6.24 2.2728 6.2364 2.16648 6.22128 1.8336C6.20616 1.50144 6.15336 1.27464 6.07608 1.0764C5.99779 0.868188 5.87501 0.679562 5.71632 0.52368C5.56047 0.364896 5.37184 0.242037 5.1636 0.16368C4.96536 0.08688 4.73856 0.03408 4.4064 0.01872C4.07352 0.00360002 3.9672 0 3.12 0ZM3.12 0.56208C3.95304 0.56208 4.05168 0.56544 4.38072 0.58032C4.6848 0.59424 4.85016 0.64512 4.96008 0.68784C5.10576 0.74448 5.20968 0.81192 5.31888 0.92112C5.42808 1.03032 5.49552 1.13424 5.55216 1.27992C5.59488 1.38984 5.64576 1.55496 5.65968 1.85928C5.67456 2.18808 5.67792 2.28696 5.67792 3.12C5.67792 3.95304 5.67456 4.05168 5.65968 4.38072C5.64576 4.68504 5.59488 4.85016 5.55216 4.96008C5.50218 5.09561 5.42247 5.21821 5.31888 5.31888C5.21821 5.42248 5.09561 5.50219 4.96008 5.55216C4.85016 5.59488 4.6848 5.64576 4.38072 5.65968C4.05192 5.67456 3.95304 5.67792 3.12 5.67792C2.28696 5.67792 2.18808 5.67456 1.85928 5.65968C1.55496 5.64576 1.38984 5.59488 1.27992 5.55216C1.14439 5.50219 1.02178 5.42248 0.92112 5.31888C0.817543 5.2182 0.737832 5.0956 0.68784 4.96008C0.64512 4.85016 0.59424 4.68504 0.58032 4.38072C0.56544 4.05192 0.56208 3.95304 0.56208 3.12C0.56208 2.28696 0.56544 2.18832 0.58032 1.85928C0.59424 1.55496 0.64512 1.38984 0.68784 1.27992C0.74448 1.13424 0.81192 1.03032 0.92112 0.92112C1.02179 0.817531 1.14439 0.737817 1.27992 0.68784C1.38984 0.64512 1.55496 0.59424 1.85928 0.58032C2.18808 0.56544 2.28696 0.56208 3.12 0.56208Z" fill="black"/>
<path fill-rule="evenodd" clip-rule="evenodd" d="M3.12 1.44C2.67444 1.44 2.24712 1.617 1.93206 1.93206C1.617 2.24712 1.44 2.67444 1.44 3.12C1.44 3.56557 1.617 3.99288 1.93206 4.30794C2.24712 4.623 2.67444 4.8 3.12 4.8C3.56556 4.8 3.99288 4.623 4.30794 4.30794C4.623 3.99288 4.8 3.56557 4.8 3.12C4.8 2.67444 4.623 2.24712 4.30794 1.93206C3.99288 1.617 3.56556 1.44 3.12 1.44ZM3.12 4.2C2.83357 4.2 2.55886 4.08622 2.35633 3.88368C2.15379 3.68114 2.04 3.40644 2.04 3.12C2.04 2.83357 2.15379 2.55887 2.35633 2.35633C2.55886 2.15379 2.83357 2.04 3.12 2.04C3.40643 2.04 3.68114 2.15379 3.88368 2.35633C4.08622 2.55887 4.2 2.83357 4.2 3.12C4.2 3.40644 4.08622 3.68114 3.88368 3.88368C3.68114 4.08622 3.40643 4.2 3.12 4.2ZM5.208 1.464C5.208 1.51443 5.19807 1.56436 5.17877 1.61095C5.15947 1.65754 5.13119 1.69987 5.09553 1.73553C5.05987 1.77119 5.01754 1.79947 4.97095 1.81877C4.92436 1.83807 4.87443 1.848 4.824 1.848C4.77357 1.848 4.72364 1.83807 4.67705 1.81877C4.63046 1.79947 4.58813 1.77119 4.55247 1.73553C4.51681 1.69987 4.48853 1.65754 4.46923 1.61095C4.44993 1.56436 4.44 1.51443 4.44 1.464C4.44 1.36216 4.48046 1.26449 4.55247 1.19247C4.62449 1.12046 4.72216 1.08 4.824 1.08C4.92584 1.08 5.02351 1.12046 5.09553 1.19247C5.16754 1.26449 5.208 1.36216 5.208 1.464Z" fill="black"/>
</svg>
