<svg width="6" height="6" viewBox="0 0 6 6" fill="none" xmlns="http://www.w3.org/2000/svg">
<path fill-rule="evenodd" clip-rule="evenodd" d="M7.41981e-08 0.501273C7.41981e-08 0.368328 0.0528126 0.240827 0.146819 0.14682C0.240826 0.0528132 0.368327 6.68267e-07 0.501273 6.68267e-07H5.49818C5.56407 -0.000106937 5.62932 0.0127815 5.69022 0.0379279C5.75112 0.0630744 5.80645 0.0999851 5.85307 0.146547C5.89968 0.193109 5.93665 0.248407 5.96186 0.309276C5.98708 0.370145 6.00004 0.435389 6 0.501273V5.49818C6.00007 5.56408 5.98715 5.62934 5.96197 5.69024C5.9368 5.75114 5.89986 5.80648 5.85328 5.85308C5.80669 5.89969 5.75138 5.93666 5.69049 5.96187C5.62961 5.98708 5.56435 6.00004 5.49845 6H0.501273C0.435422 6 0.370216 5.98703 0.309381 5.96182C0.248546 5.93661 0.193274 5.89966 0.146723 5.85308C0.100172 5.80651 0.0632542 5.75122 0.0380789 5.69037C0.0129036 5.62952 -3.57533e-05 5.56431 7.41981e-08 5.49845V0.501273ZM2.37491 2.28764H3.18736V2.69564C3.30464 2.46109 3.60464 2.25 4.05545 2.25C4.91973 2.25 5.12455 2.71718 5.12455 3.57436V5.16218H4.24991V3.76964C4.24991 3.28146 4.13264 3.006 3.83482 3.006C3.42164 3.006 3.24982 3.303 3.24982 3.76964V5.16218H2.37491V2.28764ZM0.874909 5.12482H1.74982V2.25H0.874909V5.12455V5.12482ZM1.875 1.31236C1.87665 1.38727 1.86332 1.46176 1.83579 1.53145C1.80827 1.60114 1.7671 1.66463 1.7147 1.71819C1.6623 1.77175 1.59974 1.81431 1.53067 1.84337C1.4616 1.87242 1.38743 1.88739 1.3125 1.88739C1.23757 1.88739 1.1634 1.87242 1.09433 1.84337C1.02526 1.81431 0.962697 1.77175 0.9103 1.71819C0.857904 1.66463 0.816734 1.60114 0.789207 1.53145C0.76168 1.46176 0.74835 1.38727 0.75 1.31236C0.753238 1.16532 0.813923 1.0254 0.91906 0.922551C1.0242 0.819705 1.16542 0.762114 1.3125 0.762114C1.45958 0.762114 1.6008 0.819705 1.70594 0.922551C1.81108 1.0254 1.87176 1.16532 1.875 1.31236Z" fill="black"/>
</svg>
