<svg width="1327" height="683" viewBox="0 0 1327 683" fill="none" xmlns="http://www.w3.org/2000/svg">
<path d="M243.5 370C263.833 374.333 280.167 384.5 292.5 400.5C304.833 416.167 311 434.167 311 454.5C311 483.833 300.667 507.167 280 524.5C259.667 541.5 231.167 550 194.5 550H31V199H189C224.667 199 252.5 207.167 272.5 223.5C292.833 239.833 303 262 303 290C303 310.667 297.5 327.833 286.5 341.5C275.833 355.167 261.5 364.667 243.5 370ZM116.5 341H172.5C186.5 341 197.167 338 204.5 332C212.167 325.667 216 316.5 216 304.5C216 292.5 212.167 283.333 204.5 277C197.167 270.667 186.5 267.5 172.5 267.5H116.5V341ZM179.5 481C193.833 481 204.833 477.833 212.5 471.5C220.5 464.833 224.5 455.333 224.5 443C224.5 430.667 220.333 421 212 414C204 407 192.833 403.5 178.5 403.5H116.5V481H179.5ZM645.59 271L470.59 682.5H378.59L442.59 540.5L329.09 271H424.59L489.09 445.5L553.09 271H645.59ZM1179.96 199V550H1094.46V339.5L1015.96 550H946.965L867.965 339V550H782.465V199H883.465L981.965 442L1079.46 199H1179.96Z" fill="black"/>
<path d="M1261 556C1249.67 556 1240.33 552.333 1233 545C1225.67 537.667 1222 528.333 1222 517C1222 505.667 1225.67 496.333 1233 489C1240.33 481.667 1249.67 478 1261 478C1272.33 478 1281.67 481.667 1289 489C1296.33 496.333 1300 505.667 1300 517C1300 528.333 1296.33 537.667 1289 545C1281.67 552.333 1272.33 556 1261 556Z" fill="#F2ACD3"/>
</svg>
