<svg width="58" height="29" viewBox="0 0 58 29" fill="none" xmlns="http://www.w3.org/2000/svg">
<path d="M9.74 14.8C10.5533 14.9733 11.2067 15.38 11.7 16.02C12.1933 16.6467 12.44 17.3667 12.44 18.18C12.44 19.3533 12.0267 20.2867 11.2 20.98C10.3867 21.66 9.24667 22 7.78 22H1.24V7.96H7.56C8.98667 7.96 10.1 8.28667 10.9 8.94C11.7133 9.59333 12.12 10.48 12.12 11.6C12.12 12.4267 11.9 13.1133 11.46 13.66C11.0333 14.2067 10.46 14.5867 9.74 14.8ZM4.66 13.64H6.9C7.46 13.64 7.88667 13.52 8.18 13.28C8.48667 13.0267 8.64 12.66 8.64 12.18C8.64 11.7 8.48667 11.3333 8.18 11.08C7.88667 10.8267 7.46 10.7 6.9 10.7H4.66V13.64ZM7.18 19.24C7.75333 19.24 8.19333 19.1133 8.5 18.86C8.82 18.5933 8.98 18.2133 8.98 17.72C8.98 17.2267 8.81333 16.84 8.48 16.56C8.16 16.28 7.71333 16.14 7.14 16.14H4.66V19.24H7.18ZM25.8236 10.84L18.8236 27.3H15.1436L17.7036 21.62L13.1636 10.84H16.9836L19.5636 17.82L22.1236 10.84H25.8236ZM47.1986 7.96V22H43.7786V13.58L40.6386 22H37.8786L34.7186 13.56V22H31.2986V7.96H35.3386L39.2786 17.68L43.1786 7.96H47.1986Z" fill="black"/>
<path d="M53.8 22.24C53.3467 22.24 52.9733 22.0933 52.68 21.8C52.3867 21.5067 52.24 21.1333 52.24 20.68C52.24 20.2267 52.3867 19.8533 52.68 19.56C52.9733 19.2667 53.3467 19.12 53.8 19.12C54.2533 19.12 54.6267 19.2667 54.92 19.56C55.2133 19.8533 55.36 20.2267 55.36 20.68C55.36 21.1333 55.2133 21.5067 54.92 21.8C54.6267 22.0933 54.2533 22.24 53.8 22.24Z" fill="#D977C8"/>
</svg>
