<svg width="108" height="154" viewBox="0 0 108 154" fill="none" xmlns="http://www.w3.org/2000/svg">
<g clip-path="url(#clip0_72_3304)">
<path d="M53.9342 153.611L9.98242 141.273L0.187744 30.1885H107.812L98.0075 141.256L53.9342 153.611V153.611Z" fill="#264DE4"/>
<path d="M89.6134 134.184L97.9919 39.271H54V144.167L89.6134 134.184V134.184Z" fill="#2965F1"/>
<path d="M22.6416 80.4709L23.849 94.095H54V80.4709H22.6416ZM20.215 52.8955L21.4397 66.5196H54V52.8955H20.215V52.8955ZM54 115.854L53.9409 115.87L38.9357 111.773L37.9763 100.907H24.451L26.3385 122.299L53.938 130.046L54 130.029V115.854Z" fill="#EBEBEB"/>
<path d="M25.5167 0H41.8348V6.90056H32.3409V13.8011H41.8356V20.7013H25.5167V0ZM45.0988 0H61.4174V6.00045H51.9231V7.20046H61.4174V21.0016H45.0993V14.7004H54.5936V13.5004H45.0984V0H45.0988ZM64.6814 0H81V6.00045H71.5057V7.20046H81V21.0016H64.6814V14.7004H74.1757V13.5004H64.6819V0H64.6814Z" fill="black"/>
<path d="M85.2723 80.4709L87.7045 52.8955H53.9536V66.5196H72.9388L71.7129 80.4709H53.9536V94.095H70.5447L68.9804 111.764L53.9532 115.866V130.04L81.5746 122.299L81.7771 119.997L84.9437 84.1294L85.2723 80.4709V80.4709Z" fill="white"/>
</g>
<defs>
<clipPath id="clip0_72_3304">
<rect width="108" height="154" fill="white"/>
</clipPath>
</defs>
</svg>
