<svg width="109" height="154" viewBox="0 0 109 154" fill="none" xmlns="http://www.w3.org/2000/svg">
<g clip-path="url(#clip0_72_3298)">
<path d="M108.811 30.1885L98.915 141.256L54.4336 153.611L10.0748 141.273L0.189484 30.1885H108.811Z" fill="#E44D26"/>
<path d="M54.5 144.167L90.4432 134.184L98.8992 39.271H54.5V144.167Z" fill="#F16529"/>
<path d="M35.2632 66.5196H54.5V52.8955H20.4022L20.7275 56.5506L24.0698 94.095H54.5V80.4709H36.5061L35.2632 66.5196V66.5196ZM38.328 100.907H24.6774L26.5824 122.299L54.4374 130.046L54.5 130.029V115.854L54.4404 115.87L39.2962 111.773L38.328 100.907Z" fill="#EBEBEB"/>
<path d="M10.2954 0H17.2058V6.84042H23.5274V0H30.4382V20.7145H23.5278V13.7781H17.2062V20.7145H10.2958V0H10.2954ZM39.5253 6.86942H33.4426V0H52.5235V6.86942H46.437V20.7145H39.5265V6.86942H39.5261H39.5253ZM55.5517 0H62.7572L67.1895 7.27853L71.6177 0H78.8262V20.7145H71.9438V10.4473L67.1895 17.8124H67.0703L62.3131 10.4473V20.7145H55.5517V0ZM82.2652 0H89.1777V13.8677H98.8958V20.7145H82.2648V0H82.2652Z" fill="black"/>
<path d="M54.4532 94.095H71.1979L69.6191 111.764L54.4528 115.866V130.04L82.3299 122.299L82.5343 119.997L85.7302 84.1294L86.0619 80.4709H54.4532V94.095ZM54.4532 66.4863V66.5196H87.2992L87.5717 63.4575L88.1917 56.5506L88.5165 52.8955H54.4532V66.4868V66.4863Z" fill="white"/>
</g>
<defs>
<clipPath id="clip0_72_3298">
<rect width="109" height="154" fill="white"/>
</clipPath>
</defs>
</svg>
