<svg width="135" height="134" viewBox="0 0 135 134" fill="none" xmlns="http://www.w3.org/2000/svg">
<g clip-path="url(#clip0_72_3310)">
<path d="M0 0H135V134H0V0Z" fill="#F7DF1E"/>
<path d="M35.4966 111.98L45.8272 105.774C47.8206 109.282 49.6336 112.25 53.9826 112.25C58.1512 112.25 60.7801 110.631 60.7801 104.335V61.5191H73.4664V104.513C73.4664 117.556 65.764 123.493 54.5263 123.493C44.3776 123.493 38.4866 118.275 35.496 111.979M80.3572 110.631L90.6868 104.694C93.4063 109.102 96.9406 112.34 103.193 112.34C108.45 112.34 111.802 109.731 111.802 106.133C111.802 101.816 108.358 100.286 102.558 97.7687L99.3874 96.4182C90.2343 92.5516 84.163 87.6941 84.163 77.44C84.163 67.9951 91.4124 60.7988 102.74 60.7988C110.805 60.7988 116.605 63.5877 120.773 70.8734L110.895 77.1704C108.72 73.3027 106.365 71.7737 102.74 71.7737C99.0241 71.7737 96.6679 74.1125 96.6679 77.1704C96.6679 80.948 99.0241 82.478 104.461 84.8168L107.632 86.1657C118.417 90.7536 124.488 95.4305 124.488 105.954C124.488 117.288 115.517 123.494 103.464 123.494C91.684 123.494 84.0718 117.917 80.3566 110.631" fill="black"/>
</g>
<defs>
<clipPath id="clip0_72_3310">
<rect width="135" height="134" fill="white"/>
</clipPath>
</defs>
</svg>
