<svg width="186" height="147" viewBox="0 0 186 147" fill="none" xmlns="http://www.w3.org/2000/svg">
<path d="M91.5 57.1538C95.7716 57.1538 99.2344 53.691 99.2344 49.4194C99.2344 45.1479 95.7716 41.6851 91.5 41.6851C87.2284 41.6851 83.7656 45.1479 83.7656 49.4194C83.7656 53.691 87.2284 57.1538 91.5 57.1538Z" fill="#00D8FF"/>
<path d="M91.5 67.1529C82.2037 67.3778 72.9307 66.1247 64.0275 63.4404C59.9147 62.1367 56.0788 60.0829 52.7137 57.3829C51.4295 56.4605 50.3602 55.2712 49.5789 53.8967C48.7976 52.5221 48.323 50.9948 48.1875 49.4196C48.1875 44.3056 53.8057 39.2937 63.2169 36.0143C72.3581 33.1085 81.9091 31.7002 91.5 31.844C100.963 31.7118 110.386 33.0946 119.412 35.9401C123.373 37.2028 127.079 39.1574 130.357 41.713C131.62 42.5924 132.673 43.7386 133.443 45.0704C134.213 46.4022 134.68 47.887 134.812 49.4196C134.812 54.7346 128.532 60.1208 118.416 63.4683C109.685 66.0651 100.607 67.3077 91.5 67.1529V67.1529ZM91.5 35.5441C82.3243 35.4214 73.1876 36.7603 64.4328 39.5103C55.7703 42.5329 51.8876 46.6661 51.8876 49.4103C51.8876 52.2813 56.0611 56.7951 65.2248 59.929C73.7421 62.484 82.6105 63.6734 91.5 63.4528C100.213 63.6086 108.899 62.4297 117.255 59.9569C126.769 56.8043 131.1 52.2844 131.1 49.4196C130.944 48.4365 130.586 47.4964 130.048 46.6588C129.51 45.8211 128.804 45.1042 127.975 44.5531C125.042 42.2858 121.731 40.5536 118.196 39.436C109.561 36.7252 100.549 35.4113 91.5 35.5441V35.5441Z" fill="#00D8FF"/>
<path d="M73.9275 87.9955C72.4843 88.0286 71.0581 87.6784 69.7943 86.9807C65.364 84.4253 63.8295 77.056 65.6889 67.2642C67.7389 57.8936 71.291 48.9161 76.2076 40.6797C80.8196 32.4166 86.7238 24.9446 93.6966 18.547C96.7692 15.7462 100.314 13.512 104.166 11.948C105.559 11.295 107.079 10.9565 108.618 10.9565C110.156 10.9565 111.676 11.295 113.07 11.948C117.676 14.6024 119.201 22.7328 117.051 33.168C114.938 42.0303 111.478 50.516 106.792 58.3295C102.343 66.495 96.6244 73.9019 89.851 80.2735C86.6669 83.184 82.9716 85.4801 78.9518 87.0457C77.3425 87.643 75.6438 87.9641 73.9275 87.9955V87.9955ZM79.4127 42.5173C74.7229 50.4043 71.3184 58.9876 69.3271 67.9449C67.6163 76.9632 69.259 82.3865 71.6474 83.7663C74.1224 85.1987 80.1305 83.8406 87.4255 77.4674C93.8916 71.3633 99.3496 64.2732 103.597 56.4609C108.085 48.9911 111.404 40.8781 113.438 32.4039C115.461 22.5812 113.713 16.567 111.232 15.1377C110.302 14.7813 109.308 14.6218 108.314 14.6692C107.319 14.7166 106.345 14.9699 105.453 15.413C102.024 16.8279 98.8716 18.8366 96.1406 21.3468C89.4788 27.4749 83.8389 34.6281 79.4344 42.5359L79.4127 42.5173Z" fill="#00D8FF"/>
<path d="M109.063 88.0359C104.871 88.0359 99.5468 85.499 94.0028 80.7315C86.9079 74.2757 80.9038 66.7149 76.223 58.3421C71.3681 50.219 67.8442 41.3714 65.7847 32.1349C64.8916 28.0712 64.7261 23.8814 65.2959 19.7599C65.4277 18.231 65.8932 16.7496 66.6598 15.4202C67.4263 14.0908 68.4751 12.9457 69.7324 12.0657C74.3328 9.40202 82.1383 12.14 90.1047 19.2123C96.7272 25.4684 102.351 32.7032 106.78 40.6644C111.632 48.5978 115.193 57.2516 117.33 66.3023C118.261 70.515 118.405 74.8639 117.754 79.129C117.599 80.7018 117.105 82.2226 116.307 83.587C115.51 84.9514 114.426 86.1271 113.131 87.0335C111.888 87.7225 110.484 88.0685 109.063 88.0359V88.0359ZM79.4251 56.4796C83.9154 64.4814 89.6508 71.7174 96.416 77.9162C103.374 83.9026 108.893 85.1896 111.266 83.7943C113.741 82.3557 115.566 76.4838 113.685 66.9829C111.624 58.3419 108.209 50.0815 103.566 42.5082C99.339 34.8887 93.9711 27.961 87.6483 21.9657C80.149 15.308 74.0667 13.8199 71.5886 15.2554C70.8162 15.8831 70.1824 16.6641 69.7271 17.5491C69.2718 18.4341 69.005 19.4039 68.9435 20.3972C68.4516 24.0729 68.6118 27.8064 69.4168 31.4264C71.3977 40.2595 74.7775 48.7193 79.4282 56.4858L79.4251 56.4796Z" fill="#00D8FF"/>
<path d="M67.1649 111L63.3149 104.2H61.6649V111H58.1649V93.55H64.7149C66.0649 93.55 67.2149 93.7917 68.1649 94.275C69.1149 94.7417 69.8233 95.3833 70.2899 96.2C70.7733 97 71.0149 97.9 71.0149 98.9C71.0149 100.05 70.6816 101.092 70.0149 102.025C69.3483 102.942 68.3566 103.575 67.0399 103.925L71.2149 111H67.1649ZM61.6649 101.575H64.5899C65.5399 101.575 66.2483 101.35 66.7149 100.9C67.1816 100.433 67.4149 99.7917 67.4149 98.975C67.4149 98.175 67.1816 97.5583 66.7149 97.125C66.2483 96.675 65.5399 96.45 64.5899 96.45H61.6649V101.575ZM87.0556 103.775C87.0556 104.275 87.0222 104.725 86.9556 105.125H76.8306C76.9139 106.125 77.2639 106.908 77.8806 107.475C78.4972 108.042 79.2556 108.325 80.1556 108.325C81.4556 108.325 82.3806 107.767 82.9306 106.65H86.7056C86.3056 107.983 85.5389 109.083 84.4056 109.95C83.2722 110.8 81.8806 111.225 80.2306 111.225C78.8972 111.225 77.6972 110.933 76.6306 110.35C75.5806 109.75 74.7556 108.908 74.1556 107.825C73.5722 106.742 73.2806 105.492 73.2806 104.075C73.2806 102.642 73.5722 101.383 74.1556 100.3C74.7389 99.2167 75.5556 98.3833 76.6056 97.8C77.6556 97.2167 78.8639 96.925 80.2306 96.925C81.5472 96.925 82.7222 97.2083 83.7556 97.775C84.8056 98.3417 85.6139 99.15 86.1806 100.2C86.7639 101.233 87.0556 102.425 87.0556 103.775ZM83.4306 102.775C83.4139 101.875 83.0889 101.158 82.4556 100.625C81.8222 100.075 81.0472 99.8 80.1306 99.8C79.2639 99.8 78.5306 100.067 77.9306 100.6C77.3472 101.117 76.9889 101.842 76.8556 102.775H83.4306ZM88.7103 104.025C88.7103 102.625 88.9853 101.383 89.5353 100.3C90.1019 99.2167 90.8603 98.3833 91.8103 97.8C92.7769 97.2167 93.8519 96.925 95.0353 96.925C96.0686 96.925 96.9686 97.1333 97.7353 97.55C98.5186 97.9667 99.1436 98.4917 99.6103 99.125V97.15H103.135V111H99.6103V108.975C99.1603 109.625 98.5353 110.167 97.7353 110.6C96.9519 111.017 96.0436 111.225 95.0103 111.225C93.8436 111.225 92.7769 110.925 91.8103 110.325C90.8603 109.725 90.1019 108.883 89.5353 107.8C88.9853 106.7 88.7103 105.442 88.7103 104.025ZM99.6103 104.075C99.6103 103.225 99.4436 102.5 99.1103 101.9C98.7769 101.283 98.3269 100.817 97.7603 100.5C97.1936 100.167 96.5853 100 95.9353 100C95.2853 100 94.6853 100.158 94.1353 100.475C93.5853 100.792 93.1353 101.258 92.7853 101.875C92.4519 102.475 92.2853 103.192 92.2853 104.025C92.2853 104.858 92.4519 105.592 92.7853 106.225C93.1353 106.842 93.5853 107.317 94.1353 107.65C94.7019 107.983 95.3019 108.15 95.9353 108.15C96.5853 108.15 97.1936 107.992 97.7603 107.675C98.3269 107.342 98.7769 106.875 99.1103 106.275C99.4436 105.658 99.6103 104.925 99.6103 104.075ZM105.654 104.075C105.654 102.642 105.945 101.392 106.529 100.325C107.112 99.2417 107.92 98.4083 108.954 97.825C109.987 97.225 111.17 96.925 112.504 96.925C114.22 96.925 115.637 97.3583 116.754 98.225C117.887 99.075 118.645 100.275 119.029 101.825H115.254C115.054 101.225 114.712 100.758 114.229 100.425C113.762 100.075 113.179 99.9 112.479 99.9C111.479 99.9 110.687 100.267 110.104 101C109.52 101.717 109.229 102.742 109.229 104.075C109.229 105.392 109.52 106.417 110.104 107.15C110.687 107.867 111.479 108.225 112.479 108.225C113.895 108.225 114.82 107.592 115.254 106.325H119.029C118.645 107.825 117.887 109.017 116.754 109.9C115.62 110.783 114.204 111.225 112.504 111.225C111.17 111.225 109.987 110.933 108.954 110.35C107.92 109.75 107.112 108.917 106.529 107.85C105.945 106.767 105.654 105.508 105.654 104.075ZM125.668 100.025V106.725C125.668 107.192 125.776 107.533 125.993 107.75C126.226 107.95 126.609 108.05 127.143 108.05H128.768V111H126.568C123.618 111 122.143 109.567 122.143 106.7V100.025H120.493V97.15H122.143V93.725H125.668V97.15H128.768V100.025H125.668Z" fill="black"/>
</svg>
