<svg width="538" height="504" viewBox="0 0 538 504" fill="none" xmlns="http://www.w3.org/2000/svg">
<g filter="url(#filter0_d_90_2797)">
<rect x="1" y="1" width="188" height="174" fill="#F29BDB"/>
</g>
<g filter="url(#filter1_d_90_2797)">
<rect x="339" y="1" width="188" height="174" fill="#D977C8"/>
</g>
<g filter="url(#filter2_d_90_2797)">
<rect x="1" y="321" width="188" height="174" fill="#7EB6D9"/>
</g>
<g filter="url(#filter3_d_90_2797)">
<rect x="341" y="321" width="188" height="174" fill="#9BEAF2"/>
</g>
<g filter="url(#filter4_d_90_2797)">
<rect x="169" y="161" width="188" height="174" fill="#F2ACD3"/>
</g>
<path d="M54.8783 80.06C57.0783 80.06 59.0083 80.49 60.6683 81.35C62.3483 82.21 63.6383 83.44 64.5383 85.04C65.4583 86.62 65.9183 88.46 65.9183 90.56C65.9183 92.66 65.4583 94.5 64.5383 96.08C63.6383 97.64 62.3483 98.85 60.6683 99.71C59.0083 100.57 57.0783 101 54.8783 101H47.5583V80.06H54.8783ZM54.7283 97.43C56.9283 97.43 58.6283 96.83 59.8283 95.63C61.0283 94.43 61.6283 92.74 61.6283 90.56C61.6283 88.38 61.0283 86.68 59.8283 85.46C58.6283 84.22 56.9283 83.6 54.7283 83.6H51.7583V97.43H54.7283ZM84.5122 92.33C84.5122 92.93 84.4722 93.47 84.3922 93.95H72.2422C72.3422 95.15 72.7622 96.09 73.5022 96.77C74.2422 97.45 75.1522 97.79 76.2322 97.79C77.7922 97.79 78.9022 97.12 79.5622 95.78H84.0922C83.6122 97.38 82.6922 98.7 81.3322 99.74C79.9722 100.76 78.3022 101.27 76.3222 101.27C74.7222 101.27 73.2822 100.92 72.0022 100.22C70.7422 99.5 69.7522 98.49 69.0322 97.19C68.3322 95.89 67.9822 94.39 67.9822 92.69C67.9822 90.97 68.3322 89.46 69.0322 88.16C69.7322 86.86 70.7122 85.86 71.9722 85.16C73.2322 84.46 74.6822 84.11 76.3222 84.11C77.9022 84.11 79.3122 84.45 80.5522 85.13C81.8122 85.81 82.7822 86.78 83.4622 88.04C84.1622 89.28 84.5122 90.71 84.5122 92.33ZM80.1622 91.13C80.1422 90.05 79.7522 89.19 78.9922 88.55C78.2322 87.89 77.3022 87.56 76.2022 87.56C75.1622 87.56 74.2822 87.88 73.5622 88.52C72.8622 89.14 72.4322 90.01 72.2722 91.13H80.1622ZM95.1978 87.83H92.2878V101H88.0278V87.83H86.1378V84.38H88.0278V83.54C88.0278 81.5 88.6078 80 89.7678 79.04C90.9278 78.08 92.6778 77.63 95.0178 77.69V81.23C93.9978 81.21 93.2878 81.38 92.8878 81.74C92.4878 82.1 92.2878 82.75 92.2878 83.69V84.38H95.1978V87.83ZM100.05 82.4C99.3096 82.4 98.6896 82.17 98.1896 81.71C97.7096 81.23 97.4696 80.64 97.4696 79.94C97.4696 79.24 97.7096 78.66 98.1896 78.2C98.6896 77.72 99.3096 77.48 100.05 77.48C100.79 77.48 101.4 77.72 101.88 78.2C102.38 78.66 102.63 79.24 102.63 79.94C102.63 80.64 102.38 81.23 101.88 81.71C101.4 82.17 100.79 82.4 100.05 82.4ZM102.12 84.38V101H97.9196V84.38H102.12ZM115.479 84.14C117.459 84.14 119.059 84.77 120.279 86.03C121.499 87.27 122.109 89.01 122.109 91.25V101H117.909V91.82C117.909 90.5 117.579 89.49 116.919 88.79C116.259 88.07 115.359 87.71 114.219 87.71C113.059 87.71 112.139 88.07 111.459 88.79C110.799 89.49 110.469 90.5 110.469 91.82V101H106.269V84.38H110.469V86.45C111.029 85.73 111.739 85.17 112.599 84.77C113.479 84.35 114.439 84.14 115.479 84.14ZM128.233 82.4C127.493 82.4 126.873 82.17 126.373 81.71C125.893 81.23 125.653 80.64 125.653 79.94C125.653 79.24 125.893 78.66 126.373 78.2C126.873 77.72 127.493 77.48 128.233 77.48C128.973 77.48 129.583 77.72 130.063 78.2C130.563 78.66 130.813 79.24 130.813 79.94C130.813 80.64 130.563 81.23 130.063 81.71C129.583 82.17 128.973 82.4 128.233 82.4ZM130.303 84.38V101H126.103V84.38H130.303ZM138.653 86.96C139.193 86.08 139.893 85.39 140.753 84.89C141.633 84.39 142.633 84.14 143.753 84.14V88.55H142.643C141.323 88.55 140.323 88.86 139.643 89.48C138.983 90.1 138.653 91.18 138.653 92.72V101H134.453V84.38H138.653V86.96Z" fill="black"/>
<path d="M226.927 240.06V243.45H221.347V261H217.147V243.45H211.567V240.06H226.927ZM245.442 252.33C245.442 252.93 245.402 253.47 245.322 253.95H233.172C233.272 255.15 233.692 256.09 234.432 256.77C235.172 257.45 236.082 257.79 237.162 257.79C238.722 257.79 239.832 257.12 240.492 255.78H245.022C244.542 257.38 243.622 258.7 242.262 259.74C240.902 260.76 239.232 261.27 237.252 261.27C235.652 261.27 234.212 260.92 232.932 260.22C231.672 259.5 230.682 258.49 229.962 257.19C229.262 255.89 228.912 254.39 228.912 252.69C228.912 250.97 229.262 249.46 229.962 248.16C230.662 246.86 231.642 245.86 232.902 245.16C234.162 244.46 235.612 244.11 237.252 244.11C238.832 244.11 240.242 244.45 241.482 245.13C242.742 245.81 243.712 246.78 244.392 248.04C245.092 249.28 245.442 250.71 245.442 252.33ZM241.092 251.13C241.072 250.05 240.682 249.19 239.922 248.55C239.162 247.89 238.232 247.56 237.132 247.56C236.092 247.56 235.212 247.88 234.492 248.52C233.792 249.14 233.362 250.01 233.202 251.13H241.092ZM254.868 261.27C253.508 261.27 252.288 261.03 251.208 260.55C250.128 260.05 249.268 259.38 248.628 258.54C248.008 257.7 247.668 256.77 247.608 255.75H251.838C251.918 256.39 252.228 256.92 252.768 257.34C253.328 257.76 254.018 257.97 254.838 257.97C255.638 257.97 256.258 257.81 256.698 257.49C257.158 257.17 257.388 256.76 257.388 256.26C257.388 255.72 257.108 255.32 256.548 255.06C256.008 254.78 255.138 254.48 253.938 254.16C252.698 253.86 251.678 253.55 250.878 253.23C250.098 252.91 249.418 252.42 248.838 251.76C248.278 251.1 247.998 250.21 247.998 249.09C247.998 248.17 248.258 247.33 248.778 246.57C249.318 245.81 250.078 245.21 251.058 244.77C252.058 244.33 253.228 244.11 254.568 244.11C256.548 244.11 258.128 244.61 259.308 245.61C260.488 246.59 261.138 247.92 261.258 249.6H257.238C257.178 248.94 256.898 248.42 256.398 248.04C255.918 247.64 255.268 247.44 254.448 247.44C253.688 247.44 253.098 247.58 252.678 247.86C252.278 248.14 252.078 248.53 252.078 249.03C252.078 249.59 252.358 250.02 252.918 250.32C253.478 250.6 254.348 250.89 255.528 251.19C256.728 251.49 257.718 251.8 258.498 252.12C259.278 252.44 259.948 252.94 260.508 253.62C261.088 254.28 261.388 255.16 261.408 256.26C261.408 257.22 261.138 258.08 260.598 258.84C260.078 259.6 259.318 260.2 258.318 260.64C257.338 261.06 256.188 261.27 254.868 261.27ZM269.745 247.83V255.87C269.745 256.43 269.875 256.84 270.135 257.1C270.415 257.34 270.875 257.46 271.515 257.46H273.465V261H270.825C267.285 261 265.515 259.28 265.515 255.84V247.83H263.535V244.38H265.515V240.27H269.745V244.38H273.465V247.83H269.745ZM291.936 252.33C291.936 252.93 291.896 253.47 291.816 253.95H279.666C279.766 255.15 280.186 256.09 280.926 256.77C281.666 257.45 282.576 257.79 283.656 257.79C285.216 257.79 286.326 257.12 286.986 255.78H291.516C291.036 257.38 290.116 258.7 288.756 259.74C287.396 260.76 285.726 261.27 283.746 261.27C282.146 261.27 280.706 260.92 279.426 260.22C278.166 259.5 277.176 258.49 276.456 257.19C275.756 255.89 275.406 254.39 275.406 252.69C275.406 250.97 275.756 249.46 276.456 248.16C277.156 246.86 278.136 245.86 279.396 245.16C280.656 244.46 282.106 244.11 283.746 244.11C285.326 244.11 286.736 244.45 287.976 245.13C289.236 245.81 290.206 246.78 290.886 248.04C291.586 249.28 291.936 250.71 291.936 252.33ZM287.586 251.13C287.566 250.05 287.176 249.19 286.416 248.55C285.656 247.89 284.726 247.56 283.626 247.56C282.586 247.56 281.706 247.88 280.986 248.52C280.286 249.14 279.856 250.01 279.696 251.13H287.586ZM293.922 252.63C293.922 250.95 294.252 249.46 294.912 248.16C295.592 246.86 296.502 245.86 297.642 245.16C298.802 244.46 300.092 244.11 301.512 244.11C302.752 244.11 303.832 244.36 304.752 244.86C305.692 245.36 306.442 245.99 307.002 246.75V244.38H311.232V261H307.002V258.57C306.462 259.35 305.712 260 304.752 260.52C303.812 261.02 302.722 261.27 301.482 261.27C300.082 261.27 298.802 260.91 297.642 260.19C296.502 259.47 295.592 258.46 294.912 257.16C294.252 255.84 293.922 254.33 293.922 252.63ZM307.002 252.69C307.002 251.67 306.802 250.8 306.402 250.08C306.002 249.34 305.462 248.78 304.782 248.4C304.102 248 303.372 247.8 302.592 247.8C301.812 247.8 301.092 247.99 300.432 248.37C299.772 248.75 299.232 249.31 298.812 250.05C298.412 250.77 298.212 251.63 298.212 252.63C298.212 253.63 298.412 254.51 298.812 255.27C299.232 256.01 299.772 256.58 300.432 256.98C301.112 257.38 301.832 257.58 302.592 257.58C303.372 257.58 304.102 257.39 304.782 257.01C305.462 256.61 306.002 256.05 306.402 255.33C306.802 254.59 307.002 253.71 307.002 252.69ZM319.534 246.96C320.074 246.08 320.774 245.39 321.634 244.89C322.514 244.39 323.514 244.14 324.634 244.14V248.55H323.524C322.204 248.55 321.204 248.86 320.524 249.48C319.864 250.1 319.534 251.18 319.534 252.72V261H315.334V244.38H319.534V246.96Z" fill="black"/>
<path d="M45.8841 400.06C48.0841 400.06 50.0141 400.49 51.6741 401.35C53.3541 402.21 54.6441 403.44 55.5441 405.04C56.4641 406.62 56.9241 408.46 56.9241 410.56C56.9241 412.66 56.4641 414.5 55.5441 416.08C54.6441 417.64 53.3541 418.85 51.6741 419.71C50.0141 420.57 48.0841 421 45.8841 421H38.5641V400.06H45.8841ZM45.7341 417.43C47.9341 417.43 49.6341 416.83 50.8341 415.63C52.0341 414.43 52.6341 412.74 52.6341 410.56C52.6341 408.38 52.0341 406.68 50.8341 405.46C49.6341 404.22 47.9341 403.6 45.7341 403.6H42.7641V417.43H45.7341ZM62.198 402.4C61.458 402.4 60.838 402.17 60.338 401.71C59.858 401.23 59.618 400.64 59.618 399.94C59.618 399.24 59.858 398.66 60.338 398.2C60.838 397.72 61.458 397.48 62.198 397.48C62.938 397.48 63.548 397.72 64.028 398.2C64.528 398.66 64.778 399.24 64.778 399.94C64.778 400.64 64.528 401.23 64.028 401.71C63.548 402.17 62.938 402.4 62.198 402.4ZM64.268 404.38V421H60.068V404.38H64.268ZM74.7777 421.27C73.4177 421.27 72.1977 421.03 71.1177 420.55C70.0377 420.05 69.1777 419.38 68.5377 418.54C67.9177 417.7 67.5777 416.77 67.5177 415.75H71.7477C71.8277 416.39 72.1377 416.92 72.6777 417.34C73.2377 417.76 73.9277 417.97 74.7477 417.97C75.5477 417.97 76.1677 417.81 76.6077 417.49C77.0677 417.17 77.2977 416.76 77.2977 416.26C77.2977 415.72 77.0177 415.32 76.4577 415.06C75.9177 414.78 75.0477 414.48 73.8477 414.16C72.6077 413.86 71.5877 413.55 70.7877 413.23C70.0077 412.91 69.3277 412.42 68.7477 411.76C68.1877 411.1 67.9077 410.21 67.9077 409.09C67.9077 408.17 68.1677 407.33 68.6877 406.57C69.2277 405.81 69.9877 405.21 70.9677 404.77C71.9677 404.33 73.1377 404.11 74.4777 404.11C76.4577 404.11 78.0377 404.61 79.2177 405.61C80.3977 406.59 81.0477 407.92 81.1677 409.6H77.1477C77.0877 408.94 76.8077 408.42 76.3077 408.04C75.8277 407.64 75.1777 407.44 74.3577 407.44C73.5977 407.44 73.0077 407.58 72.5877 407.86C72.1877 408.14 71.9877 408.53 71.9877 409.03C71.9877 409.59 72.2677 410.02 72.8277 410.32C73.3877 410.6 74.2577 410.89 75.4377 411.19C76.6377 411.49 77.6277 411.8 78.4077 412.12C79.1877 412.44 79.8577 412.94 80.4177 413.62C80.9977 414.28 81.2977 415.16 81.3177 416.26C81.3177 417.22 81.0477 418.08 80.5077 418.84C79.9877 419.6 79.2277 420.2 78.2277 420.64C77.2477 421.06 76.0977 421.27 74.7777 421.27ZM100.215 412.33C100.215 412.93 100.175 413.47 100.095 413.95H87.9453C88.0453 415.15 88.4653 416.09 89.2053 416.77C89.9453 417.45 90.8553 417.79 91.9353 417.79C93.4953 417.79 94.6053 417.12 95.2653 415.78H99.7953C99.3153 417.38 98.3953 418.7 97.0353 419.74C95.6753 420.76 94.0053 421.27 92.0253 421.27C90.4253 421.27 88.9853 420.92 87.7053 420.22C86.4453 419.5 85.4553 418.49 84.7353 417.19C84.0353 415.89 83.6853 414.39 83.6853 412.69C83.6853 410.97 84.0353 409.46 84.7353 408.16C85.4353 406.86 86.4153 405.86 87.6753 405.16C88.9353 404.46 90.3853 404.11 92.0253 404.11C93.6053 404.11 95.0153 404.45 96.2553 405.13C97.5153 405.81 98.4853 406.78 99.1653 408.04C99.8653 409.28 100.215 410.71 100.215 412.33ZM95.8653 411.13C95.8453 410.05 95.4553 409.19 94.6953 408.55C93.9353 407.89 93.0053 407.56 91.9053 407.56C90.8653 407.56 89.9853 407.88 89.2653 408.52C88.5653 409.14 88.1353 410.01 87.9753 411.13H95.8653ZM112.491 404.14C114.471 404.14 116.071 404.77 117.291 406.03C118.511 407.27 119.121 409.01 119.121 411.25V421H114.921V411.82C114.921 410.5 114.591 409.49 113.931 408.79C113.271 408.07 112.371 407.71 111.231 407.71C110.071 407.71 109.151 408.07 108.471 408.79C107.811 409.49 107.481 410.5 107.481 411.82V421H103.281V404.38H107.481V406.45C108.041 405.73 108.751 405.17 109.611 404.77C110.491 404.35 111.451 404.14 112.491 404.14ZM106.221 402.79C106.401 401.47 106.811 400.49 107.451 399.85C108.111 399.19 108.941 398.86 109.941 398.86C110.361 398.86 110.731 398.93 111.051 399.07C111.371 399.19 111.731 399.37 112.131 399.61C112.731 399.99 113.231 400.18 113.631 400.18C114.371 400.18 114.801 399.75 114.921 398.89H117.171C116.991 400.21 116.571 401.2 115.911 401.86C115.271 402.5 114.451 402.82 113.451 402.82C113.031 402.82 112.661 402.76 112.341 402.64C112.021 402.5 111.661 402.31 111.261 402.07C110.681 401.67 110.181 401.47 109.761 401.47C109.021 401.47 108.581 401.91 108.441 402.79H106.221ZM122.035 412.63C122.035 410.95 122.365 409.46 123.025 408.16C123.705 406.86 124.615 405.86 125.755 405.16C126.915 404.46 128.205 404.11 129.625 404.11C130.865 404.11 131.945 404.36 132.865 404.86C133.805 405.36 134.555 405.99 135.115 406.75V404.38H139.345V421H135.115V418.57C134.575 419.35 133.825 420 132.865 420.52C131.925 421.02 130.835 421.27 129.595 421.27C128.195 421.27 126.915 420.91 125.755 420.19C124.615 419.47 123.705 418.46 123.025 417.16C122.365 415.84 122.035 414.33 122.035 412.63ZM135.115 412.69C135.115 411.67 134.915 410.8 134.515 410.08C134.115 409.34 133.575 408.78 132.895 408.4C132.215 408 131.485 407.8 130.705 407.8C129.925 407.8 129.205 407.99 128.545 408.37C127.885 408.75 127.345 409.31 126.925 410.05C126.525 410.77 126.325 411.63 126.325 412.63C126.325 413.63 126.525 414.51 126.925 415.27C127.345 416.01 127.885 416.58 128.545 416.98C129.225 417.38 129.945 417.58 130.705 417.58C131.485 417.58 132.215 417.39 132.895 417.01C133.575 416.61 134.115 416.05 134.515 415.33C134.915 414.59 135.115 413.71 135.115 412.69ZM147.647 406.96C148.187 406.08 148.887 405.39 149.747 404.89C150.627 404.39 151.627 404.14 152.747 404.14V408.55H151.637C150.317 408.55 149.317 408.86 148.637 409.48C147.977 410.1 147.647 411.18 147.647 412.72V421H143.447V404.38H147.647V406.96Z" fill="black"/>
<path d="M388.259 97.01H379.919L378.539 101H374.129L381.659 80.03H386.549L394.079 101H389.639L388.259 97.01ZM387.119 93.65L384.089 84.89L381.059 93.65H387.119ZM406.103 84.14C408.083 84.14 409.683 84.77 410.903 86.03C412.123 87.27 412.733 89.01 412.733 91.25V101H408.533V91.82C408.533 90.5 408.203 89.49 407.543 88.79C406.883 88.07 405.983 87.71 404.843 87.71C403.683 87.71 402.763 88.07 402.083 88.79C401.423 89.49 401.093 90.5 401.093 91.82V101H396.893V84.38H401.093V86.45C401.653 85.73 402.363 85.17 403.223 84.77C404.103 84.35 405.063 84.14 406.103 84.14ZM415.647 92.63C415.647 90.95 415.977 89.46 416.637 88.16C417.317 86.86 418.227 85.86 419.367 85.16C420.527 84.46 421.817 84.11 423.237 84.11C424.477 84.11 425.557 84.36 426.477 84.86C427.417 85.36 428.167 85.99 428.727 86.75V84.38H432.957V101H428.727V98.57C428.187 99.35 427.437 100 426.477 100.52C425.537 101.02 424.447 101.27 423.207 101.27C421.807 101.27 420.527 100.91 419.367 100.19C418.227 99.47 417.317 98.46 416.637 97.16C415.977 95.84 415.647 94.33 415.647 92.63ZM428.727 92.69C428.727 91.67 428.527 90.8 428.127 90.08C427.727 89.34 427.187 88.78 426.507 88.4C425.827 88 425.097 87.8 424.317 87.8C423.537 87.8 422.817 87.99 422.157 88.37C421.497 88.75 420.957 89.31 420.537 90.05C420.137 90.77 419.937 91.63 419.937 92.63C419.937 93.63 420.137 94.51 420.537 95.27C420.957 96.01 421.497 96.58 422.157 96.98C422.837 97.38 423.557 97.58 424.317 97.58C425.097 97.58 425.827 97.39 426.507 97.01C427.187 96.61 427.727 96.05 428.127 95.33C428.527 94.59 428.727 93.71 428.727 92.69ZM441.259 78.8V101H437.059V78.8H441.259ZM447.539 82.4C446.799 82.4 446.179 82.17 445.679 81.71C445.199 81.23 444.959 80.64 444.959 79.94C444.959 79.24 445.199 78.66 445.679 78.2C446.179 77.72 446.799 77.48 447.539 77.48C448.279 77.48 448.889 77.72 449.369 78.2C449.869 78.66 450.119 79.24 450.119 79.94C450.119 80.64 449.869 81.23 449.369 81.71C448.889 82.17 448.279 82.4 447.539 82.4ZM449.609 84.38V101H445.409V84.38H449.609ZM457.598 97.55H465.008V101H452.828V97.61L460.088 87.83H452.858V84.38H464.918V87.77L457.598 97.55ZM467.18 92.63C467.18 90.95 467.51 89.46 468.17 88.16C468.85 86.86 469.76 85.86 470.9 85.16C472.06 84.46 473.35 84.11 474.77 84.11C476.01 84.11 477.09 84.36 478.01 84.86C478.95 85.36 479.7 85.99 480.26 86.75V84.38H484.49V101H480.26V98.57C479.72 99.35 478.97 100 478.01 100.52C477.07 101.02 475.98 101.27 474.74 101.27C473.34 101.27 472.06 100.91 470.9 100.19C469.76 99.47 468.85 98.46 468.17 97.16C467.51 95.84 467.18 94.33 467.18 92.63ZM480.26 92.69C480.26 91.67 480.06 90.8 479.66 90.08C479.26 89.34 478.72 88.78 478.04 88.4C477.36 88 476.63 87.8 475.85 87.8C475.07 87.8 474.35 87.99 473.69 88.37C473.03 88.75 472.49 89.31 472.07 90.05C471.67 90.77 471.47 91.63 471.47 92.63C471.47 93.63 471.67 94.51 472.07 95.27C472.49 96.01 473.03 96.58 473.69 96.98C474.37 97.38 475.09 97.58 475.85 97.58C476.63 97.58 477.36 97.39 478.04 97.01C478.72 96.61 479.26 96.05 479.66 95.33C480.06 94.59 480.26 93.71 480.26 92.69ZM492.792 86.96C493.332 86.08 494.032 85.39 494.892 84.89C495.772 84.39 496.772 84.14 497.892 84.14V88.55H496.782C495.462 88.55 494.462 88.86 493.782 89.48C493.122 90.1 492.792 91.18 492.792 92.72V101H488.592V84.38H492.792V86.96Z" fill="black"/>
<path d="M376.817 406.54C376.817 407.66 376.547 408.71 376.007 409.69C375.487 410.67 374.657 411.46 373.517 412.06C372.397 412.66 370.977 412.96 369.257 412.96H365.747V421H361.547V400.06H369.257C370.877 400.06 372.257 400.34 373.397 400.9C374.537 401.46 375.387 402.23 375.947 403.21C376.527 404.19 376.817 405.3 376.817 406.54ZM369.077 409.57C370.237 409.57 371.097 409.31 371.657 408.79C372.217 408.25 372.497 407.5 372.497 406.54C372.497 404.5 371.357 403.48 369.077 403.48H365.747V409.57H369.077ZM383.999 406.96C384.539 406.08 385.239 405.39 386.099 404.89C386.979 404.39 387.979 404.14 389.099 404.14V408.55H387.989C386.669 408.55 385.669 408.86 384.989 409.48C384.329 410.1 383.999 411.18 383.999 412.72V421H379.799V404.38H383.999V406.96ZM399.307 421.27C397.707 421.27 396.267 420.92 394.987 420.22C393.707 419.5 392.697 418.49 391.957 417.19C391.237 415.89 390.877 414.39 390.877 412.69C390.877 410.99 391.247 409.49 391.987 408.19C392.747 406.89 393.777 405.89 395.077 405.19C396.377 404.47 397.827 404.11 399.427 404.11C401.027 404.11 402.477 404.47 403.777 405.19C405.077 405.89 406.097 406.89 406.837 408.19C407.597 409.49 407.977 410.99 407.977 412.69C407.977 414.39 407.587 415.89 406.807 417.19C406.047 418.49 405.007 419.5 403.687 420.22C402.387 420.92 400.927 421.27 399.307 421.27ZM399.307 417.61C400.067 417.61 400.777 417.43 401.437 417.07C402.117 416.69 402.657 416.13 403.057 415.39C403.457 414.65 403.657 413.75 403.657 412.69C403.657 411.11 403.237 409.9 402.397 409.06C401.577 408.2 400.567 407.77 399.367 407.77C398.167 407.77 397.157 408.2 396.337 409.06C395.537 409.9 395.137 411.11 395.137 412.69C395.137 414.27 395.527 415.49 396.307 416.35C397.107 417.19 398.107 417.61 399.307 417.61ZM415.948 407.83V415.87C415.948 416.43 416.078 416.84 416.338 417.1C416.618 417.34 417.078 417.46 417.718 417.46H419.668V421H417.028C413.488 421 411.718 419.28 411.718 415.84V407.83H409.738V404.38H411.718V400.27H415.948V404.38H419.668V407.83H415.948ZM430.069 421.27C428.469 421.27 427.029 420.92 425.749 420.22C424.469 419.5 423.459 418.49 422.719 417.19C421.999 415.89 421.639 414.39 421.639 412.69C421.639 410.99 422.009 409.49 422.749 408.19C423.509 406.89 424.539 405.89 425.839 405.19C427.139 404.47 428.589 404.11 430.189 404.11C431.789 404.11 433.239 404.47 434.539 405.19C435.839 405.89 436.859 406.89 437.599 408.19C438.359 409.49 438.739 410.99 438.739 412.69C438.739 414.39 438.349 415.89 437.569 417.19C436.809 418.49 435.769 419.5 434.449 420.22C433.149 420.92 431.689 421.27 430.069 421.27ZM430.069 417.61C430.829 417.61 431.539 417.43 432.199 417.07C432.879 416.69 433.419 416.13 433.819 415.39C434.219 414.65 434.419 413.75 434.419 412.69C434.419 411.11 433.999 409.9 433.159 409.06C432.339 408.2 431.329 407.77 430.129 407.77C428.929 407.77 427.919 408.2 427.099 409.06C426.299 409.9 425.899 411.11 425.899 412.69C425.899 414.27 426.289 415.49 427.069 416.35C427.869 417.19 428.869 417.61 430.069 417.61ZM446.71 407.83V415.87C446.71 416.43 446.84 416.84 447.1 417.1C447.38 417.34 447.84 417.46 448.48 417.46H450.43V421H447.79C444.25 421 442.48 419.28 442.48 415.84V407.83H440.5V404.38H442.48V400.27H446.71V404.38H450.43V407.83H446.71ZM455.581 402.4C454.841 402.4 454.221 402.17 453.721 401.71C453.241 401.23 453.001 400.64 453.001 399.94C453.001 399.24 453.241 398.66 453.721 398.2C454.221 397.72 454.841 397.48 455.581 397.48C456.321 397.48 456.931 397.72 457.411 398.2C457.911 398.66 458.161 399.24 458.161 399.94C458.161 400.64 457.911 401.23 457.411 401.71C456.931 402.17 456.321 402.4 455.581 402.4ZM457.651 404.38V421H453.451V404.38H457.651ZM466 406.78C466.54 406.02 467.28 405.39 468.22 404.89C469.18 404.37 470.27 404.11 471.49 404.11C472.91 404.11 474.19 404.46 475.33 405.16C476.49 405.86 477.4 406.86 478.06 408.16C478.74 409.44 479.08 410.93 479.08 412.63C479.08 414.33 478.74 415.84 478.06 417.16C477.4 418.46 476.49 419.47 475.33 420.19C474.19 420.91 472.91 421.27 471.49 421.27C470.27 421.27 469.19 421.02 468.25 420.52C467.33 420.02 466.58 419.39 466 418.63V428.92H461.8V404.38H466V406.78ZM474.79 412.63C474.79 411.63 474.58 410.77 474.16 410.05C473.76 409.31 473.22 408.75 472.54 408.37C471.88 407.99 471.16 407.8 470.38 407.8C469.62 407.8 468.9 408 468.22 408.4C467.56 408.78 467.02 409.34 466.6 410.08C466.2 410.82 466 411.69 466 412.69C466 413.69 466.2 414.56 466.6 415.3C467.02 416.04 467.56 416.61 468.22 417.01C468.9 417.39 469.62 417.58 470.38 417.58C471.16 417.58 471.88 417.38 472.54 416.98C473.22 416.58 473.76 416.01 474.16 415.27C474.58 414.53 474.79 413.65 474.79 412.63ZM481.052 412.63C481.052 410.95 481.382 409.46 482.042 408.16C482.723 406.86 483.633 405.86 484.773 405.16C485.933 404.46 487.223 404.11 488.643 404.11C489.883 404.11 490.963 404.36 491.883 404.86C492.823 405.36 493.573 405.99 494.133 406.75V404.38H498.363V421H494.133V418.57C493.593 419.35 492.843 420 491.883 420.52C490.943 421.02 489.853 421.27 488.613 421.27C487.213 421.27 485.933 420.91 484.773 420.19C483.633 419.47 482.723 418.46 482.042 417.16C481.382 415.84 481.052 414.33 481.052 412.63ZM494.133 412.69C494.133 411.67 493.933 410.8 493.533 410.08C493.133 409.34 492.593 408.78 491.913 408.4C491.233 408 490.503 407.8 489.723 407.8C488.943 407.8 488.223 407.99 487.562 408.37C486.903 408.75 486.363 409.31 485.943 410.05C485.543 410.77 485.343 411.63 485.343 412.63C485.343 413.63 485.543 414.51 485.943 415.27C486.363 416.01 486.903 416.58 487.562 416.98C488.243 417.38 488.963 417.58 489.723 417.58C490.503 417.58 491.233 417.39 491.913 417.01C492.593 416.61 493.133 416.05 493.533 415.33C493.933 414.59 494.133 413.71 494.133 412.69ZM506.665 406.96C507.205 406.08 507.905 405.39 508.765 404.89C509.645 404.39 510.645 404.14 511.765 404.14V408.55H510.655C509.335 408.55 508.335 408.86 507.655 409.48C506.995 410.1 506.665 411.18 506.665 412.72V421H502.465V404.38H506.665V406.96Z" fill="black"/>
<defs>
<filter id="filter0_d_90_2797" x="0" y="0" width="198" height="184" filterUnits="userSpaceOnUse" color-interpolation-filters="sRGB">
<feFlood flood-opacity="0" result="BackgroundImageFix"/>
<feColorMatrix in="SourceAlpha" type="matrix" values="0 0 0 0 0 0 0 0 0 0 0 0 0 0 0 0 0 0 127 0" result="hardAlpha"/>
<feMorphology radius="1" operator="dilate" in="SourceAlpha" result="effect1_dropShadow_90_2797"/>
<feOffset dx="4" dy="4"/>
<feGaussianBlur stdDeviation="2"/>
<feComposite in2="hardAlpha" operator="out"/>
<feColorMatrix type="matrix" values="0 0 0 0 0 0 0 0 0 0 0 0 0 0 0 0 0 0 0.25 0"/>
<feBlend mode="normal" in2="BackgroundImageFix" result="effect1_dropShadow_90_2797"/>
<feBlend mode="normal" in="SourceGraphic" in2="effect1_dropShadow_90_2797" result="shape"/>
</filter>
<filter id="filter1_d_90_2797" x="338" y="0" width="198" height="184" filterUnits="userSpaceOnUse" color-interpolation-filters="sRGB">
<feFlood flood-opacity="0" result="BackgroundImageFix"/>
<feColorMatrix in="SourceAlpha" type="matrix" values="0 0 0 0 0 0 0 0 0 0 0 0 0 0 0 0 0 0 127 0" result="hardAlpha"/>
<feMorphology radius="1" operator="dilate" in="SourceAlpha" result="effect1_dropShadow_90_2797"/>
<feOffset dx="4" dy="4"/>
<feGaussianBlur stdDeviation="2"/>
<feComposite in2="hardAlpha" operator="out"/>
<feColorMatrix type="matrix" values="0 0 0 0 0 0 0 0 0 0 0 0 0 0 0 0 0 0 0.25 0"/>
<feBlend mode="normal" in2="BackgroundImageFix" result="effect1_dropShadow_90_2797"/>
<feBlend mode="normal" in="SourceGraphic" in2="effect1_dropShadow_90_2797" result="shape"/>
</filter>
<filter id="filter2_d_90_2797" x="0" y="320" width="198" height="184" filterUnits="userSpaceOnUse" color-interpolation-filters="sRGB">
<feFlood flood-opacity="0" result="BackgroundImageFix"/>
<feColorMatrix in="SourceAlpha" type="matrix" values="0 0 0 0 0 0 0 0 0 0 0 0 0 0 0 0 0 0 127 0" result="hardAlpha"/>
<feMorphology radius="1" operator="dilate" in="SourceAlpha" result="effect1_dropShadow_90_2797"/>
<feOffset dx="4" dy="4"/>
<feGaussianBlur stdDeviation="2"/>
<feComposite in2="hardAlpha" operator="out"/>
<feColorMatrix type="matrix" values="0 0 0 0 0 0 0 0 0 0 0 0 0 0 0 0 0 0 0.25 0"/>
<feBlend mode="normal" in2="BackgroundImageFix" result="effect1_dropShadow_90_2797"/>
<feBlend mode="normal" in="SourceGraphic" in2="effect1_dropShadow_90_2797" result="shape"/>
</filter>
<filter id="filter3_d_90_2797" x="340" y="320" width="198" height="184" filterUnits="userSpaceOnUse" color-interpolation-filters="sRGB">
<feFlood flood-opacity="0" result="BackgroundImageFix"/>
<feColorMatrix in="SourceAlpha" type="matrix" values="0 0 0 0 0 0 0 0 0 0 0 0 0 0 0 0 0 0 127 0" result="hardAlpha"/>
<feMorphology radius="1" operator="dilate" in="SourceAlpha" result="effect1_dropShadow_90_2797"/>
<feOffset dx="4" dy="4"/>
<feGaussianBlur stdDeviation="2"/>
<feComposite in2="hardAlpha" operator="out"/>
<feColorMatrix type="matrix" values="0 0 0 0 0 0 0 0 0 0 0 0 0 0 0 0 0 0 0.25 0"/>
<feBlend mode="normal" in2="BackgroundImageFix" result="effect1_dropShadow_90_2797"/>
<feBlend mode="normal" in="SourceGraphic" in2="effect1_dropShadow_90_2797" result="shape"/>
</filter>
<filter id="filter4_d_90_2797" x="168" y="160" width="198" height="184" filterUnits="userSpaceOnUse" color-interpolation-filters="sRGB">
<feFlood flood-opacity="0" result="BackgroundImageFix"/>
<feColorMatrix in="SourceAlpha" type="matrix" values="0 0 0 0 0 0 0 0 0 0 0 0 0 0 0 0 0 0 127 0" result="hardAlpha"/>
<feMorphology radius="1" operator="dilate" in="SourceAlpha" result="effect1_dropShadow_90_2797"/>
<feOffset dx="4" dy="4"/>
<feGaussianBlur stdDeviation="2"/>
<feComposite in2="hardAlpha" operator="out"/>
<feColorMatrix type="matrix" values="0 0 0 0 0 0 0 0 0 0 0 0 0 0 0 0 0 0 0.25 0"/>
<feBlend mode="normal" in2="BackgroundImageFix" result="effect1_dropShadow_90_2797"/>
<feBlend mode="normal" in="SourceGraphic" in2="effect1_dropShadow_90_2797" result="shape"/>
</filter>
</defs>
</svg>
